PathFileType	4	(X/Y/Z)	..\data\2014001\dynamic\2014001_C5_01.trc
DataRate	CameraRate	NumFrames	NumMarkers	Units	OrigDataRate	OrigDataStartFrame	OrigNumFrames
100.000000	100.000000	4	52	mm	100.000000	46	125
Frame#	Time	L_IAS			L_IPS			R_IPS			R_IAS			L_FTC			L_FLE			L_FME			L_FAX			L_TTC			L_FAL			L_TAM			L_FCC			L_FM1			L_FM2			L_FM5			R_FTC			R_FLE			R_FME			R_FAX			R_TTC			R_FAL			R_TAM			R_FCC			R_FM1			R_FM2			R_FM5			CV7			TV10			SXS			SJN			L_SIA			L_SRS			L_SAA			L_SAE			L_HLE			L_HME			L_UOA			L_RSP			L_UHE			L_HM2			L_HM5			R_SIA			R_SRS			R_SAA			R_SAE			R_HLE			R_HME			R_UOA			R_RSP			R_UHE			R_HM2			R_HM5			
		X1	Y1	Z1	X2	Y2	Z2	X3	Y3	Z3	X4	Y4	Z4	X5	Y5	Z5	X6	Y6	Z6	X7	Y7	Z7	X8	Y8	Z8	X9	Y9	Z9	X10	Y10	Z10	X11	Y11	Z11	X12	Y12	Z12	X13	Y13	Z13	X14	Y14	Z14	X15	Y15	Z15	X16	Y16	Z16	X17	Y17	Z17	X18	Y18	Z18	X19	Y19	Z19	X20	Y20	Z20	X21	Y21	Z21	X22	Y22	Z22	X23	Y23	Z23	X24	Y24	Z24	X25	Y25	Z25	X26	Y26	Z26	X27	Y27	Z27	X28	Y28	Z28	X29	Y29	Z29	X30	Y30	Z30	X31	Y31	Z31	X32	Y32	Z32	X33	Y33	Z33	X34	Y34	Z34	X35	Y35	Z35	X36	Y36	Z36	X37	Y37	Z37	X38	Y38	Z38	X39	Y39	Z39	X40	Y40	Z40	X41	Y41	Z41	X42	Y42	Z42	X43	Y43	Z43	X44	Y44	Z44	X45	Y45	Z45	X46	Y46	Z46	X47	Y47	Z47	X48	Y48	Z48	X49	Y49	Z49	X50	Y50	Z50	X51	Y51	Z51	X52	Y52	Z52	

47	0.46	587.7350463867189	834.3806152343752	-361.2290954589844	425.9451904296876	885.405212402344	-259.3429565429688	434.0307922363282	878.0903930664065	-170.3202819824219	617.8411254882814	841.1397705078127	-126.6618728637696	483.7984008789064	764.0224609375001	-408.6614990234376	371.2683715820313	427.7028808593751	-367.4880981445313	408.7291564941407	403.805145263672	-256.3340454101563	322.9718933105469	384.8895568847657	-366.9600830078126	369.2794799804688	332.7843933105469	-328.2962341308594	112.2865753173828	146.832015991211	-301.5419006347657	146.5404510498047	142.7623291015625	-218.559310913086	65.55217742919923	149.1954956054688	-249.2685241699219	183.322006225586	31.89599418640137	-222.017807006836	188.9425201416016	33.29232025146485	-284.7667846679688	140.62841796875	42.22800827026368	-325.9022521972657	538.0169067382814	745.3060913085939	-51.40375137329103	703.7079467773439	437.3434143066407	-94.02859497070314	719.2011108398439	437.6592712402345	-212.2301788330079	711.3314208984376	372.5714111328126	-91.96363830566408	773.2869873046877	388.384246826172	-143.4212341308594	778.8413696289065	70.5430145263672	-138.2076263427735	812.6309814453127	97.36341857910159	-220.2176208496094	751.5371704101564	22.50782012939453	-198.0269317626954	931.7222290039065	66.07241058349611	-196.7430572509766	926.611511230469	73.22768402099611	-137.5920104980469	876.4934692382815	43.00379180908204	-100.7559127807617	430.8310546875001	1338.809692382813	-213.0236816406251	397.5049743652345	1097.59521484375	-214.7772064208985	630.2067260742189	1136.37646484375	-228.4395294189454	573.0661621093751	1293.520874023438	-220.8758239746094	391.2952270507814	1144.431030273438	-318.7397460937501	391.8600158691407	1279.853759765625	-307.3333740234376	480.1903381347657	1282.8720703125	-412.632293701172	514.4218750000001	1299.132568359375	-393.8944091796876	579.9123535156251	1048.854858398438	-517.0065917968751	570.3631591796876	987.8973388671877	-453.7145080566407	578.7326660156251	988.3267211914065	-508.2921142578126	794.002380371094	1011.316101074219	-394.153778076172	813.0217285156252	983.0261230468752	-465.016326904297	866.5321044921877	1035.986938476563	-372.3761596679688	888.6699218750002	963.954284667969	-443.645965576172	393.2107849121095	1142.078369140625	-104.3339004516602	407.4492187500001	1268.103515625	-122.8002014160157	487.1867980957032	1282.732543945313	-24.6084270477295	535.8112792968751	1290.840087890625	-34.9034538269043	462.2055664062501	1004.019409179688	61.04980087280275	433.2586669921876	982.738708496094	-14.19901847839356	429.3141174316407	985.2571411132815	33.39889907836915	520.1788330078126	780.6943359375002	69.03734588623048	459.169403076172	795.7720947265627	122.0416946411133	538.6540527343751	698.9531250000001	110.4834365844727	440.3436889648439	720.7919921875001	135.8632202148438	
48	0.47	611.8918457031251	835.4919433593752	-359.1101684570313	449.3428955078126	886.4078369140627	-259.2427368164063	457.4719848632814	880.0335083007815	-169.7456817626953	641.7959594726564	844.2544555664065	-124.982406616211	509.6424255371095	763.6842651367189	-407.3537597656251	402.957489013672	425.4867248535157	-370.4583435058594	441.2815551757814	399.8858337402345	-259.2144775390626	353.6154785156251	384.2152099609376	-370.3011779785157	398.4674377441407	330.2762451171876	-332.3538513183594	132.0981750488282	157.5442962646485	-304.7947692871094	166.7727661132813	151.2748565673828	-222.1808166503907	86.52735900878908	164.180419921875	-251.817123413086	191.910400390625	35.52995300292969	-223.9221191406251	197.0621337890626	35.73413848876954	-286.3421630859376	151.3458862304688	48.99306869506837	-327.3670959472657	562.2562255859376	748.5235595703126	-49.81278610229494	725.2765502929689	438.1807556152345	-94.3852996826172	737.6179199218751	437.4780578613282	-212.4361724853516	730.7967529296876	372.7366333007813	-92.15570068359376	792.0547485351565	386.3138122558595	-144.9724426269532	782.0537719726565	67.89651489257814	-139.3391265869141	816.3237915039065	92.53607177734376	-222.1209259033204	750.6155395507814	21.64022445678711	-198.6083984375001	934.2011718750002	54.75970840454103	-199.7993774414063	930.2107543945315	62.83868408203126	-139.7821350097657	877.8199462890627	36.09078979492188	-102.2258529663086	451.8580017089845	1339.771484375	-211.3550262451172	419.6563110351564	1098.243408203125	-213.2134552001954	652.1589355468751	1138.489501953125	-227.5844726562501	594.2294921875001	1295.215454101563	-219.8904571533204	412.5623779296876	1144.906616210938	-316.4267883300782	412.6545715332032	1280.339111328125	-305.0779418945313	499.6898803710939	1283.93505859375	-411.164276123047	534.2549438476564	1300.281494140625	-392.9586486816407	596.2046508789064	1049.405639648438	-516.8366699218751	586.7357788085939	988.5994873046877	-453.6651611328126	594.2188720703126	989.1394653320315	-508.2072143554689	811.3779907226565	1008.124145507813	-397.321258544922	828.9463500976565	979.9909667968752	-468.6378784179689	884.751892089844	1031.598266601563	-376.7994995117188	904.5504150390627	959.6845703125002	-448.7588500976564	416.1299133300782	1142.446899414063	-101.9891586303711	429.0540161132814	1268.727294921875	-120.9817276000977	508.9950561523439	1283.667602539063	-23.18139839172364	557.5367431640626	1292.348510742188	-33.90581893920899	489.9867553710939	1003.981323242188	62.63700485229494	460.7090148925782	982.2368774414065	-12.33346271514893	457.2241821289064	984.354431152344	35.2949562072754	553.9933471679689	782.1723632812502	68.8318557739258	493.2196350097657	795.3801269531252	122.5477523803711	575.3682250976564	701.1586303710939	109.6085510253907	476.8717346191407	719.8719482421876	136.2051086425782	
49	0.48	635.8341674804689	837.002380371094	-356.7096252441407	472.3901367187501	887.8951416015627	-259.2971191406251	480.4815673828126	882.501403808594	-169.2774200439453	665.2410888671876	847.9298095703127	-123.0203018188477	535.7315673828126	763.5285034179689	-405.9422302246095	436.5863037109376	423.1958312988282	-373.3763732910157	475.3190917968751	396.3166809082032	-261.9243774414063	386.458221435547	383.3779907226563	-373.7016296386719	429.7886657714845	327.9186401367188	-336.1344299316407	155.1293182373047	167.8922882080078	-308.2910766601563	189.8927612304688	159.5122985839844	-225.9161224365235	110.5294418334961	178.3160858154297	-254.7216491699219	204.6052246093751	39.61996459960938	-226.6661224365235	209.288558959961	38.86396789550782	-288.6821289062501	166.0614318847657	56.43319320678712	-329.5545043945313	585.9130249023439	752.2701416015626	-48.13368988037111	745.8632202148439	439.162078857422	-94.63027191162111	755.2741699218751	437.5628967285157	-212.5769500732422	749.2333984375001	373.1277465820313	-92.25022888183595	809.7456054687502	384.4734191894532	-146.330062866211	784.4979248046877	65.89868164062501	-140.1917114257813	819.1660156250002	88.47007751464845	-223.7322387695313	749.2883300781251	21.26637268066407	-198.9160308837891	935.8191528320315	44.69165802001954	-202.4911499023438	932.922546386719	53.78792190551759	-141.6065521240235	878.3864746093752	30.45541191101075	-103.235336303711	472.9512939453126	1341.326538085938	-209.7129974365235	441.6704406738282	1099.543823242188	-211.7655487060547	673.9842529296876	1141.063232421875	-226.8290557861329	615.4063720703126	1297.39697265625	-218.939926147461	433.7330932617189	1146.08203125	-314.2341308593751	433.4688415527345	1281.515380859375	-302.8919677734376	519.1716308593751	1285.618286132813	-409.7308349609376	554.0811157226564	1302.020141601563	-392.1030883789064	611.7937622070314	1050.323364257813	-516.5920410156251	602.1550903320314	989.756530761719	-453.4997863769532	608.6597290039064	990.4151000976565	-508.0321350097657	828.0495605468752	1003.8603515625	-400.9479370117189	843.691589355469	975.726013183594	-472.733367919922	902.611511230469	1025.261962890625	-381.8435974121094	918.9940185546877	953.4603271484377	-454.5823364257814	439.0332031250001	1143.463500976563	-99.68782043457034	450.7021789550782	1269.95947265625	-119.2073211669922	530.8974609375001	1285.091064453125	-21.79553604125977	579.3566284179689	1294.300170898438	-33.00663757324219	518.2521362304689	1004.389465332031	64.13592529296876	488.5101928710939	982.1997070312502	-10.48204612731934	485.6311035156251	983.816833496094	37.16083908081055	588.8431396484376	784.4348144531252	68.01051330566408	528.5070190429689	795.5333251953127	122.6108016967774	613.4787597656251	704.3300781250001	107.8536224365235	514.9386596679689	719.4894409179689	135.9625701904297	
50	0.49	659.4069824218751	838.9167480468752	-354.1606140136719	495.0380249023439	889.8110351562502	-259.3633422851563	503.011444091797	885.399841308594	-168.8265686035157	688.1204833984376	852.0095214843752	-120.8530960083008	561.7839965820314	763.6273193359376	-404.4089965820314	471.9373474121095	421.0208435058595	-376.0997009277344	510.6302490234376	393.3325500488282	-264.3027954101563	421.2945251464845	382.5214538574219	-376.9874267578126	463.1166381835939	325.8746643066407	-339.4663696289063	181.3733520507813	177.52734375	-311.8962402343751	215.9234008789063	167.1757202148438	-229.6231689453126	137.4532928466797	191.0530242919922	-257.8624877929688	222.0255584716797	43.9513053894043	-230.2952270507813	226.2512664794922	42.57664108276368	-291.8409729003907	185.2368469238282	64.24697113037111	-332.4653320312501	608.9472045898439	756.3656005859376	-46.41166305541993	765.2270507812501	440.1490478515626	-94.78192138671876	772.0332031250002	437.8205871582032	-212.6921691894532	766.4411621093751	373.6479492187501	-92.28035736083986	826.197204589844	382.8215332031251	-147.4968566894532	786.4552001953127	64.5807342529297	-140.7969970703125	821.4008789062502	85.26415252685548	-225.0650634765626	747.9655761718751	21.33814430236817	-198.9823150634766	936.8798828125002	36.21519088745118	-204.8299102783204	935.0362548828127	46.3901596069336	-143.1138458251953	878.5838623046877	26.26251602172852	-103.8518829345703	494.1253051757814	1343.452026367188	-208.1430206298829	463.5120849609376	1101.480712890625	-210.4470367431641	695.6478271484376	1144.005981445313	-226.2134552001954	636.6053466796876	1299.998291015625	-218.0630950927735	454.779998779297	1147.9541015625	-312.2123413085938	454.3143005371095	1283.381958007813	-300.8401794433594	538.6976318359376	1287.88330078125	-408.373504638672	573.9490356445314	1304.300048828125	-391.3452758789064	626.8011474609376	1051.601318359375	-516.2752075195314	616.7611694335939	991.3649902343752	-453.2044677734376	622.2241210937501	992.1450195312502	-507.7492980957032	844.0127563476565	998.5967407226565	-404.9790039062501	857.2667236328127	970.3122558593752	-477.2029113769532	920.014099121094	1017.080688476563	-387.4642028808595	931.9530029296877	945.420349121094	-460.9707336425782	461.8523254394532	1145.140747070313	-97.48841094970706	472.3946228027345	1271.794921875	-117.5165557861328	552.9177246093751	1286.982666015625	-20.48704719543457	601.2956542968751	1296.650024414063	-32.24498748779298	546.9414672851564	1005.249572753906	65.50890350341798	516.5987548828126	982.624694824219	-8.682420730590822	514.4767456054689	983.6622314453127	38.95817565917969	624.5487060546876	787.5239868164065	66.57213592529298	564.8770751953126	796.3110351562502	122.2115859985352	652.7569580078126	708.5407104492189	105.2566757202149	554.3550415039064	719.7761840820314	135.1440124511719	
